<?xml version="1.0" encoding="UTF-8"?><svg id="Layer_2" xmlns="http://www.w3.org/2000/svg" viewBox="0 0 1007.58 659.65"><defs><style>.cls-1{stroke-width:28px;}.cls-1,.cls-2{fill:none;stroke:#d82829;stroke-miterlimit:10;}.cls-3{fill:#d82829;}.cls-2{stroke-width:34px;}</style></defs><path class="cls-3" d="m770.14,242.71l-48.46-67.59,122.52-87.87-2.49-43.11c-1.3-22.89,16.25-42.58,39.12-43.9l3.11-.18c22.85-1.33,42.58,16.22,43.9,39.11l2.44,42.3,26.36,6.72c10.77,2.75,19.82,9.52,25.49,19.07,5.67,9.54,7.28,20.71,4.54,31.46l-.76,3c-2.76,10.8-9.53,19.85-19.08,25.52-9.55,5.68-20.75,7.29-31.51,4.54l-48.91-12.46-116.28,83.38Zm-3.81-60.23l11.17,15.58,102.39-73.42,63.36,16.14c2.48.63,5.06.26,7.26-1.04,2.2-1.31,3.77-3.4,4.4-5.88l.76-3c.63-2.48.26-5.05-1.04-7.25-1.31-2.2-3.4-3.77-5.88-4.4l-49.06-12.5-3.78-65.68c-.3-5.27-4.86-9.31-10.12-9.01l-3.11.18c-5.26.3-9.31,4.85-9.01,10.13l3.5,60.68-110.83,79.48Z"/><path class="cls-2" d="m780.97,236.98l-70.12,84.25c-14.51,61.48-34.87,110.01-61.79,144.06-.02.03-.04.06-.07.09-10.2,13.52-22.78,25.66-37.61,35.76-71.1,48.43-166.97,31.57-214.13-37.67-47.15-69.23-27.73-164.62,43.37-213.04,2.73-1.86,5.49-3.62,8.28-5.28.01,0,.02,0,.02-.01,33.25-23.54,93.67-31.9,173.55-29.38l112.54-38.88,45.96,60.1Z"/><path class="cls-3" d="m166.14,523.04c-40.15,0-77.06-20.41-107.37-59.55-23.97-30.95-35.41-62.8-35.89-64.14l-.92-2.59v-88.87l.75-2.36c27.16-85.77,66.82-153.34,117.85-200.85,44.15-41.09,97.13-67.6,157.48-78.78,89.8-16.64,179.26,3.9,238.5,24.06,35.67,12.14,63.7,25.16,80.94,33.95,12.1,6.17,33.21,17.53,38.62,24.31,1.44,16.41-6.9,23.06-25.02,19.95.64.8,1.13,1.23,1.15,1.25-6.16-5.3-54.35-33.49-122.47-54.51-59.6-18.39-148.49-35.25-233.45-11.12-104.02,29.55-178.83,113.34-222.37,249.05v78.21c2.96,7.45,13.1,31.07,30.58,53.47,26.4,33.8,56.71,49.33,90.1,46.12l.76-.07h603.84c30.45-6.74,112.64-32.47,121.51-69.1,4.53-18.71-13.24-38.98-30.32-53.52-6.72-1.14-20-3.57-33.63-7.16-32.8-8.65-47.84-18.63-50.29-33.36,2.92-15.17,14.16-15.65,31.56-5.26-.32-1.92-1.15-3.15-1.44-3.46.21.23,5.52,5.61,33.17,12.37,15.51,3.79,29.73,5.93,29.87,5.96l4.35.65,3.41,2.78c36.52,29.8,51.46,59.6,44.43,88.58-6.87,28.28-34.5,52.67-82.13,72.49-33.15,13.79-64.15,20.42-65.45,20.69l-1.63.34H176.92c-3.62.32-7.21.48-10.78.48Z"/><path class="cls-1" d="m253.72,595.29H118.98s3.54,42.53,35.72,50.36h693.86s39.66-16.38,40.94-50.36H316.4"/><path class="cls-1" d="m253.72,572.83H34.97s-47.18-15.58,0-49.8h931.28s57.48,22.93,5.71,60.03H316.22"/></svg>