<?xml version="1.0" encoding="UTF-8"?><svg id="Layer_2" xmlns="http://www.w3.org/2000/svg" viewBox="0 0 983.41 740.34"><defs><style>.cls-1{stroke-width:11px;}.cls-1,.cls-2{fill:none;stroke:#d9272a;stroke-miterlimit:10;}.cls-2{stroke-width:18px;}</style></defs><rect class="cls-1" x="130.43" y="61.57" width="730.26" height="673.27" rx="166.75" ry="166.75"/><rect class="cls-2" x="96.21" y="191.95" width="798.7" height="71.12" rx="30" ry="30"/><path class="cls-2" d="m42.25,333.77h78.11v78.82H42.25c-18.35,0-33.25-14.9-33.25-33.25v-12.32c0-18.35,14.9-33.25,33.25-33.25Z"/><path class="cls-2" d="m901.72,333.77h72.69v78.82h-72.69c-18.35,0-33.25-14.9-33.25-33.25v-12.32c0-18.35,14.9-33.25,33.25-33.25Z" transform="translate(1842.88 746.37) rotate(180)"/><path class="cls-1" d="m500.77-44.74h22.82V111.81h-22.82c-18.35,0-33.25-14.9-33.25-33.25V-11.49c0-18.35,14.9-33.25,33.25-33.25Z" transform="translate(529.09 -462.02) rotate(90)"/></svg>