<?xml version="1.0" encoding="UTF-8"?><svg id="Layer_2" xmlns="http://www.w3.org/2000/svg" viewBox="0 0 618.53 609.99"><defs><style>.cls-1{stroke-width:17px;}.cls-1,.cls-2,.cls-3{fill:none;stroke:#d9272a;stroke-miterlimit:10;}.cls-2{stroke-width:11px;}.cls-3{stroke-width:18px;}</style></defs><path class="cls-2" d="m353.09,331.05s16.45-83.63-9.6-113.1l-47.3-13.02v19.19l-52.1-11.65v23.99s-23.31,12.34-27.42,2.74c0,0-17.82-21.94-36.33-9.6s-15.08,32.22-15.08,32.22l-44.56,13.71s97.34,66.49,232.37,55.52Z"/><circle class="cls-2" cx="193.51" cy="255.4" r="13.2"/><path class="cls-2" d="m362.68,204.92s9.6,5.48,10.97,22.62,0,104.73,0,104.73c0,0,57.58-3.96,60.32-10.13v-95.97s-3.43-30.16-13.71-34.96l-57.58,13.71Z"/><path class="cls-2" d="m440.14,191.21s15.77,15.08,15.08,32.9.02,95.28.02,95.28c0,0,32.2-6.17,47.96-80.2v-47.98s-25.36-11.65-63.06,0Z"/><path class="cls-2" d="m525.83,197.38s56.89,25.21,67.86,64.36c0,0-19.88,48.06-113.79,78.9,0,0,55.52-52.1,45.93-143.26Z"/><path class="cls-2" d="m489.5,360.52s67.18-10.97,113.79-76.09c0,0,21.94,38.49,0,80.25,0,0-29.48,30.11-113.79,10.23v-14.39Z"/><path class="cls-2" d="m483.33,394.8s67.18,24.68,122.01-8.23l-28.79,59.64s-76.77,0-93.22-51.41Z"/><path class="cls-2" d="m479.9,427.01s25.36,39.76,82.94,40.44l-26.05,27.42s-46.61,0-60.32-38.39l3.43-29.48Z"/><path class="cls-2" d="m458.65,466.09s10.28,31.53,37.02,41.81l-121.33,79.51s-43.87,29.48-54.84,10.97,28.1-41.13,28.1-41.13c0,0-47.13,8.27-47.98-5.48-1.24-20.06,89.68-71.46,159.03-85.68"/><path class="cls-2" d="m464.61,355.87v22.14s-21.15-3.94-20.66,41.32c0,0-11.31,13.77-15.25,0s-1.48-50.67,35.91-63.46Z"/><path class="cls-2" d="m450.34,344.06s-45.75,14.27-44.77,68.38c0,0-17.71,13.01-13.77-21.78,0,0,7.38-51.02,58.54-46.6Z"/><path class="cls-3" d="m333.43,353.9h13.28v39.85s-2.05,22.51-24.1,24.93c-24.71,0-67.92.64-67.92.64-11.31-.4-14.15,6.14-13.75,20.18.26,11.16-.49,16.73-.49,16.73-1.67,7.15-10.98,15-16.23,0v-25.09c.51-15.61,7.86-31.66,29.02-29.52,19.09,1.93,57.56-1.48,57.56-1.48,0,0,19.68,1.2,22.14-9.48l.49-36.76Z"/><path class="cls-1" d="m290.83,352.05h18.17v16.47s-1.45,17.44-14.78,15.99-88.19.09-88.19.09c-7.76.14-15.99,3.55-14.78,19.05v15.51c.65-.6-7.17,21.56-16.47,0v-25.2s-.73-28.76,26.16-29.28,88.91,0,88.91,0c0,0,2.91-3.19.97-12.63Z"/><path class="cls-3" d="m180.32,328.93l-116.28,3.34c-56.97-6.05-61.67-56.28-49.67-92.04,0,0,16.89-69.42,122.46-121.48s157.63-64.6,157.63-64.6l89.66-41.94s15.43-7.23,15.91,0-6.27,12.05-6.27,12.05l-94,45.8s-121.48,42.42-189.93,86.77c0,0-57.36,32.78-71.83,77.13-10.08,36.32-2.99,89.15,38.08,81.47,29.1-7.83,89.87-9.16,104.23,13.5Z"/><path class="cls-1" d="m131.53,307c-48.68-4.96-91.91-13.16-69.9-60.02,0,0,13.98-41.46,69.9-68.93s67.97-32.78,152.81-46.28,94.97-15.91,94.97-15.91c0,0,55.46-9.16,123.9-48.21,0,0,15.89-3.86,11.07,10.12s-68.45,34.23-68.45,34.23c0,0-45.31,20.73-184.63,39.05,0,0-118.86,12.31-176.43,87.25,0,0-17.37,20.82.48,43.87,7.14,11.68,27.53,17.92,46.28,24.83Z"/></svg>