<?xml version="1.0" encoding="UTF-8"?><svg id="Layer_2" xmlns="http://www.w3.org/2000/svg" viewBox="0 0 989.14 928.22"><defs><style>.cls-1{stroke-width:11px;}.cls-1,.cls-2{fill:#fff;stroke:#d9272a;stroke-miterlimit:10;}.cls-2{stroke-width:18px;}</style></defs><path class="cls-1" d="m6.02,397.6s-28.82,346.26,343.44,476.12v49h288.3v-51.23s331.44-79.96,345.67-473.89H6.02Z"/><path class="cls-2" d="m13.45,392.81s8.05-49.9,56.34-65.99c0,0-24.42-127.79,112.85-129.5,0,0,30.96-158.77,184.78-97.99,0,0,31.34-94.01,140.54-90.21,0,0,86.41,0,122.49,82.61,0,0,168.07-69.36,186.11,109.18,0,0,101.6,13.31,89.26,123.46,0,0,58.14,4.68,65.52,68.44H13.45Z"/><path class="cls-2" d="m639.43,177.93s59.42-21.17,76.65,1.38"/><path class="cls-2" d="m292.88,235.54s16.97-38.79,60.61-36.37"/><path class="cls-2" d="m471.67,270.75s60.61-12.12,77.58,16.97"/><path class="cls-2" d="m457.12,118.01s38.79-29.09,72.73-12.12"/><path class="cls-2" d="m743.21,287.72s63.03-12.12,80.01,24.24"/><path class="cls-2" d="m168.62,324.08s65.46-31.52,105.46,0"/></svg>