<?xml version="1.0" encoding="UTF-8"?><svg id="Layer_2" xmlns="http://www.w3.org/2000/svg" viewBox="0 0 949.06 915.61"><defs><style>.cls-1{fill:#d9272a;}.cls-2{fill:none;stroke:#d9272a;stroke-miterlimit:10;stroke-width:11px;}</style></defs><path class="cls-1" d="m170.88,565.79c-22.6,0-46.99-3.5-70.73-13.44-44.26-18.52-76.97-55.5-97.21-109.9-5.33-14.06-6.11-72.01,21.59-118.67,20.59-34.7,52.99-56.05,94.31-62.38-6.24-24.59-10.98-72.92,28.02-119.23,13.03-1.63,20.16,3.2,19.59,16.49-43.57,51.73-19.86,106.23-18.83,108.52l7.63,16.98-18.57,1.09c-37.55,2.11-66.26,16.97-85.36,44.19-28.08,40.02-27,94.5-24.59,103.53l.2.54c17.65,47.43,45.56,79.45,82.95,95.15,58.53,24.58,124.83,2.81,143.17-4.18,3.96-7.43,12.35-15.85,25.3-25.42,29.25-21.62,57.82-10.29,59.02-9.8l.89.37.83.5c17.12,10.15,68.74,30.19,141.32,33.34,89.98,3.88,167.83-48.94,168.61-49.47l11.97-8.24,6.68,12.91c18.28,28.15,35.1,44.77,46.17,48.26,15.08,4.76,75.68,9.97,107.24.99,25.28-7.19,46.89-19.84,64.23-37.59,28.27-28.95,35.95-61.78,36.63-64.91,6.51-45.14-7.51-83.85-41.66-115.04-26.11-23.84-54.21-34.02-54.49-34.12l-10.24-3.64,1.93-10.69c12.05-66.75-26.09-108.21-27.72-109.95-30.61-31.79-67.26-48-108.87-48.12-31.58-.06-54.45,9.58-54.68,9.68l-13.37,5.74-4.03-13.97c-.93-3.12-24.23-77.81-129.18-79.68-44.11-.78-79.78,12.49-106.03,39.45-19.82,20.35-26.75,41.41-26.82,41.62l-4.44,13.81-13.16-6.08c-67.25-31.32-122.11,9.25-124.42,10.99-16.17-.1-21.15-7.01-15.55-20.34,2.65-2.03,62.63-46.97,138.54-18.96,4.8-9.8,13.18-23.93,26.55-37.92C375.92,25.6,415.35-1.12,480.08.04c64.6,1.15,102.74,27.43,123.37,49.27,12.75,13.5,20.56,27.01,24.99,36.42,11.26-3.33,29.4-7.38,51.32-7.46.22,0,.44,0,.66,0,33.86,0,83.3,9.79,127.83,56.03,1.94,2.04,44.88,47.96,35.95,121.97,12,5.51,33.14,16.77,53.33,35.21,40.34,36.84,57.51,84.56,49.68,138.03l-.1.6c-.34,1.72-8.63,42.43-43.49,78.12-20.5,20.99-37.49,35.17-75.55,44.33-33.98,7.82-130.71,23.77-176.21-50.13-25.2,14.86-88.03,46.86-161.73,46.86-3.59,0-7.2-.08-10.84-.23-90.93-3.93-143.49-31.38-152.17-36.26-3.29-1.04-17.96-4.67-33.57,6.86-11.42,8.44-15.76,13.65-17.25,15.82,0,0-4.65,7.36-7.87,10.39s-45.22,19.91-97.56,19.92ZM26.49,432.5l.05.1s-.03-.07-.05-.1Z"/><path class="cls-2" d="m312.94,265.54s-155.27-17.25-120.77,151.44"/><path class="cls-2" d="m380.99,197.49s103.52-150.48,193.61,0"/><path class="cls-2" d="m640.74,265.05s183.07-14.84,124.6,156.73"/><path class="cls-1" d="m481.38,915.61c-31.02,0-68.31-8.56-107.97-36.17l-4.6-3.2,1.55-5.38c3.62-12.76,8.29-48.92.03-94.35-9.54-52.48-39.11-132.93-125.82-218.18-3.55-10.49,1.69-12.72,10.97-11.16,90.05,88.52,120.63,172.61,130.43,227.56,8.51,47.7,3.45,81.94.76,94.85,43.38,28.76,88.44,37.26,134,25.27,27.37-7.2,46.77-19.96,54.1-25.32-7.16-65.13,6.45-119.75,19.3-154.4,14.28-38.51,30.43-60.98,31.11-61.91,9.1-2.99,13.19.24,12.66,9.19h0c-.62.86-62.12,87.58-47.03,209.65l.52,4.2-3.23,2.73c-1,.85-24.95,20.86-63.46,30.99-12.3,3.24-26.94,5.63-43.33,5.63Z"/><path class="cls-1" d="m446.45,665.21c-7.33,18.98-18.44,21.46-33.36,7.35-37.53-79.24-109.82-165.35-110.59-166.21l11.63-10.46c2.92,3.25,65.83,73.56,106.24,147.31l12.67-98.37,15.52,2-2.12,118.39Z"/><path class="cls-1" d="m517.88,664.9l-6.73-116.38,15.56-1.65,10.49,99.05c21.87-33.74,70.18-103.56,120.31-144.96l9.97,12.06c-26.57,21.95-57.28,56.58-88.82,100.17-23.92,33.06-25.68,62.76-25.84,63.03-14.87,8.88-26.92,6.71-34.93-11.33Z"/><path class="cls-1" d="m668.03,616.84c-7.11.67-11.29-2.38-11.06-11.06l61.22-61.22,11.06,11.06-61.22,61.22Z"/></svg>